<?xml version="1.0" encoding="UTF-8"?>
<svg width="1200" height="1000" viewBox="0 0 1200 1000" xmlns="http://www.w3.org/2000/svg">
  <!-- Background -->
  <rect width="1200" height="1000" fill="#ffffff"/>
  
  <!-- Header -->
  <rect x="0" y="0" width="1200" height="60" fill="#ffffff" stroke="#f0f0f0" stroke-width="1"/>
  <text x="60" y="35" font-family="Arial, sans-serif" font-size="24" font-weight="bold" fill="#000">MAG+</text>
  <text x="300" y="35" font-family="Arial, sans-serif" font-size="14" fill="#000" font-weight="bold">Article</text>
  <text x="380" y="35" font-family="Arial, sans-serif" font-size="14" fill="#666">D.find</text>
  <text x="450" y="35" font-family="Arial, sans-serif" font-size="14" fill="#666">Young</text>
  
  <!-- Search -->
  <rect x="700" y="20" width="180" height="20" fill="none" stroke="#e0e0e0" stroke-width="1" rx="10"/>
  <text x="710" y="32" font-family="Arial, sans-serif" font-size="11" fill="#999">Search Design Insight</text>
  
  <!-- Buttons -->
  <rect x="900" y="15" width="70" height="25" fill="none" stroke="#000" stroke-width="1"/>
  <text x="930" y="30" font-family="Arial, sans-serif" font-size="10" fill="#000">Newsletter</text>
  <rect x="980" y="15" width="70" height="25" fill="#000"/>
  <text x="1010" y="30" font-family="Arial, sans-serif" font-size="10" fill="#fff">Submission</text>
  
  <!-- Page Title -->
  <text x="60" y="100" font-family="Arial, sans-serif" font-size="28" font-weight="bold" fill="#000">Fashion Articles</text>
  
  <!-- Filter Tags -->
  <rect x="60" y="120" width="50" height="20" fill="#000"/>
  <text x="80" y="132" font-family="Arial, sans-serif" font-size="10" fill="#fff">All</text>
  <rect x="120" y="120" width="50" height="20" fill="none" stroke="#e0e0e0" stroke-width="1"/>
  <text x="140" y="132" font-family="Arial, sans-serif" font-size="10" fill="#666">Trend</text>
  <rect x="180" y="120" width="50" height="20" fill="none" stroke="#e0e0e0" stroke-width="1"/>
  <text x="200" y="132" font-family="Arial, sans-serif" font-size="10" fill="#666">Style</text>
  
  <!-- Featured Article (Large) -->
  <rect x="60" y="160" width="500" height="280" fill="#ffffff" stroke="#e0e0e0" stroke-width="1"/>
  <rect x="80" y="180" width="460" height="180" fill="#f0f0f0"/>
  <text x="80" y="380" font-family="Arial, sans-serif" font-size="10" fill="#666">2025.07.08</text>
  <text x="80" y="400" font-family="Arial, sans-serif" font-size="18" font-weight="bold" fill="#000">2025년 하반기 건축이 돋보이는 미술관 4</text>
  <text x="80" y="420" font-family="Arial, sans-serif" font-size="12" fill="#666">조각 정원부터 파빌리온까지, 예술을 담는 네 개의 공간</text>
  
  <!-- Side Articles -->
  <rect x="580" y="160" width="240" height="130" fill="#ffffff" stroke="#e0e0e0" stroke-width="1"/>
  <rect x="600" y="180" width="200" height="80" fill="#f0f0f0"/>
  <text x="600" y="275" font-family="Arial, sans-serif" font-size="14" font-weight="bold" fill="#000">세계건축상을 휩쓴 로컬 건축가</text>
  
  <rect x="580" y="310" width="240" height="130" fill="#ffffff" stroke="#e0e0e0" stroke-width="1"/>
  <rect x="600" y="330" width="200" height="80" fill="#f0f0f0"/>
  <text x="600" y="425" font-family="Arial, sans-serif" font-size="14" font-weight="bold" fill="#000">로마의 새로운 공간들</text>
  
  <!-- Article Grid -->
  <rect x="60" y="460" width="160" height="200" fill="#ffffff" stroke="#e0e0e0" stroke-width="1"/>
  <rect x="80" y="480" width="120" height="80" fill="#f0f0f0"/>
  <text x="80" y="580" font-family="Arial, sans-serif" font-size="12" font-weight="bold" fill="#000">살아있는 건축소</text>
  <rect x="80" y="590" width="30" height="12" fill="#f0f0f0"/>
  <text x="85" y="598" font-family="Arial, sans-serif" font-size="8" fill="#666">Project</text>
  
  <rect x="240" y="460" width="160" height="200" fill="#ffffff" stroke="#e0e0e0" stroke-width="1"/>
  <rect x="260" y="480" width="120" height="80" fill="#f0f0f0"/>
  <text x="260" y="580" font-family="Arial, sans-serif" font-size="12" font-weight="bold" fill="#000">UI 디자인 트렌드</text>
  <rect x="260" y="590" width="30" height="12" fill="#f0f0f0"/>
  <text x="265" y="598" font-family="Arial, sans-serif" font-size="8" fill="#666">Design</text>
  
  <rect x="420" y="460" width="160" height="200" fill="#ffffff" stroke="#e0e0e0" stroke-width="1"/>
  <rect x="440" y="480" width="120" height="80" fill="#f0f0f0"/>
  <text x="440" y="580" font-family="Arial, sans-serif" font-size="12" font-weight="bold" fill="#000">뷰티 브랜드 라부께</text>
  <rect x="440" y="590" width="30" height="12" fill="#f0f0f0"/>
  <text x="445" y="598" font-family="Arial, sans-serif" font-size="8" fill="#666">Brand</text>
  
  <rect x="600" y="460" width="160" height="200" fill="#ffffff" stroke="#e0e0e0" stroke-width="1"/>
  <rect x="620" y="480" width="120" height="80" fill="#f0f0f0"/>
  <text x="620" y="580" font-family="Arial, sans-serif" font-size="12" font-weight="bold" fill="#000">감정 표현의 미래</text>
  <rect x="620" y="590" width="30" height="12" fill="#f0f0f0"/>
  <text x="625" y="598" font-family="Arial, sans-serif" font-size="8" fill="#666">Tech</text>
  
  <!-- Right Sidebar -->
  <rect x="840" y="160" width="200" height="280" fill="#ff6b35"/>
  <text x="860" y="190" font-family="Arial, sans-serif" font-size="12" font-weight="bold" fill="#fff">TALK SESSION</text>
  <text x="860" y="220" font-family="Arial, sans-serif" font-size="14" font-weight="bold" fill="#fff">연동 출대 강남 성수</text>
  <text x="860" y="240" font-family="Arial, sans-serif" font-size="10" fill="#fff">서울 6대 상권의 현재로</text>
  <text x="860" y="255" font-family="Arial, sans-serif" font-size="10" fill="#fff">글로벌 시장의 미래를 읽는</text>
  <text x="860" y="270" font-family="Arial, sans-serif" font-size="10" fill="#fff">'리테일 부동산' 생태 분석</text>
  
  <!-- Speaker circles -->
  <circle cx="880" cy="380" r="20" fill="#fff"/>
  <circle cx="930" cy="380" r="20" fill="#fff"/>
  
  <!-- Load More -->
  <rect x="480" y="720" width="120" height="30" fill="none" stroke="#000" stroke-width="1"/>
  <text x="530" y="738" font-family="Arial, sans-serif" font-size="12" fill="#000">Load More</text>
</svg> 